# AST/ASF file generated using VICON BodyLanguage
# -----------------------------------------------
:version 1.10
:name VICON
:units
  mass 1.0
  length 0.45
  angle deg
:documentation
   .ast/.asf automatically generated from VICON data using
   VICON BodyBuilder and BodyLanguage model FoxedUp or BRILLIANT.MOD
:root
   order TX TY TZ RX RY RZ
   axis XYZ
   position 0 0 0  
   orientation 0 0 0 
:bonedata
  begin
     id 1 
     name lhipjoint
     direction 0.660183 -0.676772 0.325788 
     length 2.75133 
     axis 0 0 0  XYZ
  end
  begin
     id 2 
     name lfemur
     direction 0.34202 -0.939693 0  
     length 7.70317  
     axis 0 0 20  XYZ
    dof rx ry rz
    limits (-160.0 20.0)
           (-70.0 70.0)
           (-60.0 70.0)
  end
  begin
     id 3 
     name ltibia
     direction 0.342105 -0.939662 0   
     length 7.18701   
     axis 0 0 20   XYZ
    dof rx
    limits (-10.0 170.0)
  end
  begin
     id 4 
     name lfoot
     direction 0.14163 -0.389126 0.910232   
     length 2.41719   
     axis -90 7.62852e-016 20   XYZ
    dof rx rz
    limits (-45.0 90.0)
           (-70.0 20.0)
  end
  begin
     id 5 
     name ltoes
     direction 1.53533e-011 -4.21926e-011 1   
     length 1.18611   
     axis -90 7.62852e-016 20   XYZ
    dof rx
    limits (-90.0 20.0)
  end
  begin
     id 6 
     name rhipjoint
     direction -0.6658 -0.67229 0.323631   
     length 2.76968  
     axis 0 0 0  XYZ 
  end
  begin
     id 7 
     name rfemur
     direction -0.34202 -0.939693 0   
     length 7.92547   
     axis 0 0 -20   XYZ
    dof rx ry rz
    limits (-160.0 20.0)
           (-70.0 70.0)
           (-70.0 60.0)
  end
  begin
     id 8 
     name rtibia
     direction -0.342022 -0.939692 0   
     length 7.22641   
     axis 0 0 -20   XYZ
    dof rx
    limits (-10.0 170.0)
 end
 begin
     id 9 
     name rfoot
     direction -0.105675 -0.29034 0.951071   
     length 2.48149  
     axis -90 -7.62852e-016 -20   XYZ
    dof rx rz
    limits (-45.0 90.0)
           (-20.0 70.0)
  end
  begin
     id 10 
     name rtoes
     direction -1.5349e-011 -4.21859e-011 1   
     length 1.23343   
     axis -90 -7.62852e-016 -20   XYZ
    dof rx
    limits (-90.0 20.0)
  end
  begin
     id 11 
     name lowerback
     direction 0.0104173 0.993624 -0.112266   
     length 2.00527   
     axis 0 0 0   XYZ
    dof rx ry rz
    limits (-20.0 45.0)
           (-30.0 30.0)
           (-30.0 30.0)
  end
  begin
     id 12 
     name upperback
     direction 0.00733149 0.999856 -0.0152913   
     length 2.01385   
     axis 0 0 0   XYZ
    dof rx ry rz
    limits (-20.0 45.0)
           (-30.0 30.0)
           (-30.0 30.0)
  end
  begin
     id 13 
     name thorax
     direction 0.0026304 0.999318 0.036841   
     length 2.03734   
     axis 0 0 0   XYZ
    dof rx ry rz
    limits (-20.0 45.0)
           (-30.0 30.0)
           (-30.0 30.0)
  end
  begin
     id 14 
     name lowerneck
     direction 0.0293154 0.998757 0.0403082   
     length 1.65303   
     axis 0 0 0   XYZ
    dof rx ry rz
    limits (-20.0 45.0)
           (-30.0 30.0)
           (-30.0 30.0)
  end
  begin
     id 15 
     name upperneck
     direction -0.0376619 0.998184 -0.0470083   
     length 1.60926   
     axis 0 0 0   XYZ
    dof rx ry rz
    limits (-20.0 45.0)
           (-30.0 30.0)
           (-30.0 30.0)
  end
  begin
     id 16
     name head
     direction -0.0170133 0.999635 -0.0209778  
     length 1.73625  
     axis 0 0 0   XYZ
    dof rx ry rz
    limits (-20.0 45.0)
           (-30.0 30.0)
           (-30.0 30.0)
  end
  begin
     id 17 
     name lclavicle
     direction 0.919857 0.39181 -0.0186333  
     length 3.75313  
     axis 0 0 0   XYZ
    dof ry rz
    limits (-20.0 10.0)
           (0.0 20.0)
  end
  begin
     id 18 
     name lhumerus
     direction 1 -4.48988e-011 1.44029e-027   
     length 5.49313   
     axis 180 -30 -90   XYZ
    dof rx ry rz
    limits (-60.0 90.0)
           (-90.0 90.0)
           (-90.0 90.0)
  end
  begin
     id 19
     name lradius
     direction 1 -4.48924e-011 7.46281e-027   
     length 3.29037   
     axis 180 -30 -90   XYZ
    dof rx
    limits (-10.0 170.0)
  end
  begin
     id 20
     name lwrist
     direction 1 -4.48955e-011 2.19879e-026   
     length 1.64519   
     axis -1.34358e-014 90 90   XYZ
    dof ry
    limits (-180.0 0.0)
 end
  begin
     id 21 
     name lhand
     direction 1 -4.48978e-011 4.39747e-026   
     length 0.729656   
     axis -2.80598e-014 90 90   XYZ
    dof rx rz
    limits (-90.0 90.0)
           (-45.0 45.0)
  end
  begin
     id 22 
     name lfingers
     direction 1 -4.49071e-011 8.79411e-026   
     length 0.588268   
     axis -5.61193e-014 90 90   XYZ
    dof rx
    limits (0.0 90.0)
  end
  begin
     id 23
     name lthumb
     direction 0.707107 -6.34817e-011 0.707107   
     length 0.844638   
     axis -90 45 -9.86923e-015   XYZ
    dof rx rz
    limits (-45.0 45.0)
           (-45.0 45.0)
  end
  begin
     id 24 
     name rclavicle
     direction -0.919898 0.388279 0.0550233   
     length 3.7171  
     axis 0 0 0   XYZ 
    dof ry rz
    limits (-10.0 20.0)
           (-20.0 0.0)
  end
  begin
     id 25 
     name rhumerus
     direction -1 -4.48968e-011 9.98372e-028  
     length 5.23684   
     axis 180 30 90   XYZ
    dof rx ry rz
    limits (-90.0 60.0)
           (-90.0 90.0)
           (-90.0 90.0)
  end
  begin
     id 26 
     name rradius
     direction -1 -4.48956e-011 1.01023e-026   
     length 3.38251   
     axis 180 30 90   XYZ
    dof rx
    limits (-10.0 170.0)
  end
  begin
     id 27 
     name rwrist
     direction -1 -4.4892e-011 2.19886e-026   
     length 1.69126   
     axis -1.34358e-014 -90 -90   XYZ
    dof ry
    limits (-180.0 0.0)
  end
  begin
     id 28
     name rhand
     direction -1 -4.49024e-011 4.39727e-026   
     length 0.691454   
     axis -2.80598e-014 -90 -90   XYZ
    dof rx rz
    limits (-90.0 90.0)
           (-45.0 45.0)
  end
  begin
     id 29
     name rfingers
     direction -1 -4.49097e-011 8.79388e-026   
     length 0.557468   
     axis -5.61193e-014 -90 -90   XYZ
    dof rx
    limits (0.0 90.0)
  end
  begin
     id 30
     name rthumb
     direction -0.707107 -6.34938e-011 0.707107   
     length 0.800416   
     axis -90 -45 9.86923e-015   XYZ
    dof rx rz
    limits (-45.0 45.0)
           (-45.0 45.0)
  end
:hierarchy
  begin
    root lhipjoint rhipjoint lowerback
    lhipjoint lfemur
    lfemur ltibia
    ltibia lfoot
    lfoot ltoes
    rhipjoint rfemur
    rfemur rtibia
    rtibia rfoot
    rfoot rtoes
    lowerback upperback
    upperback thorax
    thorax lowerneck lclavicle rclavicle
    lowerneck upperneck
    upperneck head
    lclavicle lhumerus
    lhumerus lradius
    lradius lwrist
    lwrist lhand lthumb
    lhand lfingers
    rclavicle rhumerus
    rhumerus rradius
    rradius rwrist
    rwrist rhand rthumb
    rhand rfingers
  end

#!OML:ASF H:\BabyWalks\Project 1\Capture day 1\Session 1\baby.ASF
:FULLY-SPECIFIED
:DEGREES
91
root -37.9507 17.3907 -4.44903 -19.5774 76.1692 -22.7833
lowerback 16.8357 -0.427693 0.52443
upperback 8.28135 0.0349905 2.96756
thorax -0.614034 0.157339 2.81609
lowerneck -1.51465 5.11881 2.40448
upperneck -3.80601 6.70315 -7.0045
head -0.59389 3.41057 -2.60926
rclavicle 1.47101e-014 -3.05134e-014
rhumerus -32.9523 25.3594 -82.9206
rradius 56.1332
rwrist 1.33929
rhand -6.85678 -15.7223
rfingers 7.12502
rthumb 19.0086 -44.8135
lclavicle 1.47101e-014 -3.05134e-014
lhumerus -37.0741 0.821695 82.0101
lradius 52.1471
lwrist -0.0950927
lhand -3.84674 11.408
lfingers 7.12502
lthumb 21.9011 40.1884
rfemur 2.46758 13.7513 26.2976
rtibia 18.5828
rfoot -24.9703 -2.63459
rtoes 1.18988
lfemur -25.3874 -4.9768 -10.0459
ltibia 38.3687
lfoot -17.332 -15.3519
ltoes 14.9944
92
root -37.9434 17.3859 -4.45409 -19.9601 76.3111 -23.3008
lowerback 16.9355 -0.438314 0.586937
upperback 8.32784 0.0397993 3.02297
thorax -0.616578 0.162879 2.83918
lowerneck -1.54247 5.08299 2.46666
upperneck -3.9726 6.64836 -7.04111
head -0.641076 3.386 -2.63598
rclavicle -2.98177e-015 6.36111e-015
rhumerus -32.7789 25.4562 -82.8894
rradius 56.3254
rwrist 1.38495
rhand -6.86091 -15.6561
rfingers 7.12502
rthumb 19.0046 -44.7477
lclavicle -2.98177e-015 6.36111e-015
lhumerus -37.3589 0.519087 82.2813
lradius 52.0105
lwrist -0.0250994
lhand -4.11932 11.631
lfingers 7.12502
lthumb 21.6394 40.4418
rfemur 2.36773 13.7779 26.3537
rtibia 18.6072
rfoot -24.9894 -2.89146
rtoes 0.640481
lfemur -25.6817 -4.99233 -10.0101
ltibia 38.6387
lfoot -17.4926 -15.5627
ltoes 15.1394
93
root -37.9343 17.3804 -4.45917 -20.3408 76.4528 -23.8254
lowerback 17.0328 -0.449302 0.652158
upperback 8.36372 0.0438555 3.07034
thorax -0.629041 0.168045 2.85233
lowerneck -1.6107 5.04413 2.53447
upperneck -4.10662 6.59058 -7.07938
head -0.671059 3.35863 -2.66221
rclavicle -2.33075e-014 -1.2424e-014
rhumerus -32.634 25.5372 -82.8664
rradius 56.5263
rwrist 1.43779
rhand -6.85549 -15.6064
rfingers 7.12502
rthumb 19.0098 -44.6974
lclavicle -2.33075e-014 -1.2424e-014
lhumerus -37.6785 0.159926 82.573
lradius 51.8373
lwrist 0.040885
lhand -4.37139 11.8843
lfingers 7.12502
lthumb 21.3973 40.7228
rfemur 2.28085 13.7608 26.3993
rtibia 18.6041
rfoot -25.0177 -3.11218
rtoes 0.213155
lfemur -25.9829 -4.9819 -9.97865
ltibia 38.9133
lfoot -17.6424 -15.8121
ltoes 15.3806
94
root -37.9222 17.3747 -4.46449 -20.7089 76.5739 -24.3349
lowerback 17.1348 -0.455317 0.721651
upperback 8.39059 0.0545275 3.10769
thorax -0.653876 0.17661 2.85132
lowerneck -1.71969 5.00283 2.60902
upperneck -4.20857 6.53048 -7.12003
head -0.683806 3.32877 -2.6884
rclavicle -5.01931e-015 2.62396e-014
rhumerus -32.5381 25.6104 -82.8575
rradius 56.7533
rwrist 1.49154
rhand -6.84853 -15.5803
rfingers 7.12502
rthumb 19.0165 -44.6706
lclavicle -5.01931e-015 2.62396e-014
lhumerus -38.0381 -0.240822 82.8784
lradius 51.6244
lwrist 0.0988345
lhand -4.59515 12.1303
lfingers 7.12502
lthumb 21.1824 40.993
rfemur 2.21623 13.6923 26.433
rtibia 18.5694
rfoot -25.0453 -3.25417
rtoes -0.0703775
lfemur -26.2673 -4.93785 -9.95132
ltibia 39.1922
lfoot -17.7939 -16.0785
ltoes 15.7001
95
root -37.9068 17.3697 -4.46998 -21.0523 76.6737 -24.8233
lowerback 17.2292 -0.455279 0.793112
upperback 8.41023 0.0723584 3.13393
thorax -0.68278 0.1887 2.83612
lowerneck -1.86332 4.95674 2.68398
upperneck -4.29159 6.46444 -7.15958
head -0.685024 3.29504 -2.71286
rclavicle -1.46604e-014 1.49089e-015
rhumerus -32.4843 25.6682 -82.8608
rradius 57.0064
rwrist 1.53449
rhand -6.82717 -15.5792
rfingers 7.12502
rthumb 19.037 -44.6675
lclavicle -1.46604e-014 1.49089e-015
lhumerus -38.43 -0.673469 83.1926
lradius 51.3762
lwrist 0.147887
lhand -4.76696 12.3823
lfingers 7.12502
lthumb 21.0173 41.2634
rfemur 2.17183 13.6238 26.462
rtibia 18.4976
rfoot -25.0716 -3.36938
rtoes -0.280284
lfemur -26.5366 -4.86394 -9.92751
ltibia 39.4708
lfoot -17.9515 -16.3471
ltoes 16.056
96
root -37.888 17.3655 -4.47555 -21.3659 76.7453 -25.2834
lowerback 17.3231 -0.450169 0.869365
upperback 8.41838 0.0963784 3.14509
thorax -0.724019 0.203897 2.80106
lowerneck -2.00208 4.91322 2.72436
upperneck -4.3891 6.40216 -7.16562
head -0.693787 3.26367 -2.72055
rclavicle -8.94531e-015 -1.94809e-014
rhumerus -32.4829 25.7161 -82.8884
rradius 57.2857
rwrist 1.56848
rhand -6.79441 -15.5994
rfingers 7.12502
rthumb 19.0685 -44.6846
lclavicle -8.94531e-015 -1.94809e-014
lhumerus -38.8631 -1.11835 83.5015
lradius 51.0968
lwrist 0.177763
lhand -4.87405 12.6279
lfingers 7.12502
lthumb 20.9144 41.5204
rfemur 2.152 13.5595 26.4891
rtibia 18.3855
rfoot -25.0905 -3.4571
rtoes -0.440073
lfemur -26.783 -4.75891 -9.90551
ltibia 39.7423
lfoot -18.1255 -16.5977
ltoes 16.4009
97
root -37.866 17.3622 -4.48118 -21.6381 76.7954 -25.707
lowerback 17.4063 -0.435355 0.937814
upperback 8.41869 0.13061 3.14623
thorax -0.768402 0.223748 2.75786
lowerneck -2.13344 4.8661 2.73591
upperneck -4.50814 6.33512 -7.14832
head -0.712629 3.23068 -2.71618
rclavicle -5.66536e-015 1.67973e-014
rhumerus -32.5152 25.7408 -82.9272
rradius 57.5669
rwrist 1.5855
rhand -6.7581 -15.6344
rfingers 7.12502
rthumb 19.1035 -44.7162
lclavicle -5.66536e-015 1.67973e-014
lhumerus -39.3232 -1.56112 83.8061
lradius 50.7849
lwrist 0.177193
lhand -4.90156 12.8353
lfingers 7.12502
lthumb 20.888 41.7308
rfemur 2.15058 13.5034 26.5105
rtibia 18.2333
rfoot -25.0894 -3.51829
rtoes -0.603493
lfemur -27.0092 -4.62719 -9.88919
ltibia 40.0005
lfoot -18.3128 -16.8275
ltoes 16.6986
